HIERARCHY
ROOT Hips
{
    OFFSET   0.000000   0.000000   0.000000
    CHANNELS 6 Xposition Yposition Zposition Zrotation Xrotation Yrotation
    JOINT Chest
    {
        OFFSET   0.000000   8.007240   0.000000
        CHANNELS 3 Zrotation Xrotation Yrotation
        JOINT Chest2
        {
            OFFSET   0.000000  22.077100   0.000000
            CHANNELS 3 Zrotation Xrotation Yrotation
            JOINT Neck
            {
                OFFSET   0.000000  23.254800   0.000000
                CHANNELS 3 Zrotation Xrotation Yrotation
                JOINT Head
                {
                    OFFSET   0.000000  14.370000   1.956600
                    CHANNELS 3 Zrotation Xrotation Yrotation
                    End Site
                    {
                        OFFSET   0.000000  19.566000   0.000000
                    }
                }
            }
            JOINT LeftCollar
            {
                OFFSET   3.911900  19.017000  -0.467064
                CHANNELS 3 Zrotation Xrotation Yrotation
                JOINT LeftShoulder
                {
                    OFFSET  10.383700   0.000000   0.000000
                    CHANNELS 3 Zrotation Xrotation Yrotation
                    JOINT LeftElbow
                    {
                        OFFSET  26.662100   0.001476   0.000517
                        CHANNELS 3 Zrotation Xrotation Yrotation
                        JOINT LeftWrist
                        {
                            OFFSET  28.869000  -0.000025  -0.000106
                            CHANNELS 3 Zrotation Xrotation Yrotation
                            JOINT LeftFinger0
                            {
                                OFFSET   2.044660  -2.323460   3.252850
                                CHANNELS 3 Zrotation Xrotation Yrotation
                                JOINT LeftFinger01
                                {
                                    OFFSET   3.088130   0.000000   0.000000
                                    CHANNELS 3 Zrotation Xrotation Yrotation
                                    JOINT LeftFinger02
                                    {
                                        OFFSET   2.639460   0.000000   0.000000
                                        CHANNELS 3 Zrotation Xrotation Yrotation
                                        End Site
                                        {
                                            OFFSET   2.582190   0.000000   0.000000
                                        }
                                    }
                                }
                            }
                            JOINT LeftFinger1
                            {
                                OFFSET   8.364480   0.000000   3.252850
                                CHANNELS 3 Zrotation Xrotation Yrotation
                                JOINT LeftFinger11
                                {
                                    OFFSET   4.646930   0.000000   0.000000
                                    CHANNELS 3 Zrotation Xrotation Yrotation
                                    JOINT LeftFinger12
                                    {
                                        OFFSET   2.323460   0.000000   0.000000
                                        CHANNELS 3 Zrotation Xrotation Yrotation
                                        End Site
                                        {
                                            OFFSET   2.273050   0.000000   0.000000
                                        }
                                    }
                                }
                            }
                            JOINT LeftFinger2
                            {
                                OFFSET   8.364490   0.000015   1.078090
                                CHANNELS 3 Zrotation Xrotation Yrotation
                                JOINT LeftFinger21
                                {
                                    OFFSET   5.111620   0.000000   0.000000
                                    CHANNELS 3 Zrotation Xrotation Yrotation
                                    JOINT LeftFinger22
                                    {
                                        OFFSET   2.788160   0.000016   0.000000
                                        CHANNELS 3 Zrotation Xrotation Yrotation
                                        End Site
                                        {
                                            OFFSET   2.727660   0.000000   0.000000
                                        }
                                    }
                                }
                            }
                            JOINT LeftFinger3
                            {
                                OFFSET   7.899780   0.000017  -1.078090
                                CHANNELS 3 Zrotation Xrotation Yrotation
                                JOINT LeftFinger31
                                {
                                    OFFSET   4.646930   0.000000   0.000000
                                    CHANNELS 3 Zrotation Xrotation Yrotation
                                    JOINT LeftFinger32
                                    {
                                        OFFSET   2.323470   0.000000   0.000000
                                        CHANNELS 3 Zrotation Xrotation Yrotation
                                        End Site
                                        {
                                            OFFSET   2.273050   0.000000   0.000000
                                        }
                                    }
                                }
                            }
                            JOINT LeftFinger4
                            {
                                OFFSET   7.435090   0.000000  -3.252850
                                CHANNELS 3 Zrotation Xrotation Yrotation
                                JOINT LeftFinger41
                                {
                                    OFFSET   3.717550   0.000000   0.000000
                                    CHANNELS 3 Zrotation Xrotation Yrotation
                                    JOINT LeftFinger42
                                    {
                                        OFFSET   1.858770   0.000000   0.000000
                                        CHANNELS 3 Zrotation Xrotation Yrotation
                                        End Site
                                        {
                                            OFFSET   1.818440   0.000000   0.000000
                                        }
                                    }
                                }
                            }
                        }
                    }
                }
            }
            JOINT RightCollar
            {
                OFFSET  -3.911900  19.017000  -0.467063
                CHANNELS 3 Zrotation Xrotation Yrotation
                JOINT RightShoulder
                {
                    OFFSET -10.383700   0.000019   0.000000
                    CHANNELS 3 Zrotation Xrotation Yrotation
                    JOINT RightElbow
                    {
                        OFFSET -26.662100   0.001175   0.000102
                        CHANNELS 3 Zrotation Xrotation Yrotation
                        JOINT RightWrist
                        {
                            OFFSET -28.869000   0.000016  -0.000079
                            CHANNELS 3 Zrotation Xrotation Yrotation
                            JOINT RightFinger0
                            {
                                OFFSET  -2.044660  -2.323490   3.252850
                                CHANNELS 3 Zrotation Xrotation Yrotation
                                JOINT RightFinger01
                                {
                                    OFFSET  -3.088140   0.000000   0.000000
                                    CHANNELS 3 Zrotation Xrotation Yrotation
                                    JOINT RightFinger02
                                    {
                                        OFFSET  -2.639460   0.000000   0.000000
                                        CHANNELS 3 Zrotation Xrotation Yrotation
                                        End Site
                                        {
                                            OFFSET  -2.582190   0.000000   0.000000
                                        }
                                    }
                                }
                            }
                            JOINT RightFinger1
                            {
                                OFFSET  -8.364480   0.000000   3.252850
                                CHANNELS 3 Zrotation Xrotation Yrotation
                                JOINT RightFinger11
                                {
                                    OFFSET  -4.646930   0.000000   0.000000
                                    CHANNELS 3 Zrotation Xrotation Yrotation
                                    JOINT RightFinger12
                                    {
                                        OFFSET  -2.323470   0.000000   0.000000
                                        CHANNELS 3 Zrotation Xrotation Yrotation
                                        End Site
                                        {
                                            OFFSET  -2.273050   0.000000   0.000000
                                        }
                                    }
                                }
                            }
                            JOINT RightFinger2
                            {
                                OFFSET  -8.364480   0.000000   1.078090
                                CHANNELS 3 Zrotation Xrotation Yrotation
                                JOINT RightFinger21
                                {
                                    OFFSET  -5.111620   0.000000   0.000000
                                    CHANNELS 3 Zrotation Xrotation Yrotation
                                    JOINT RightFinger22
                                    {
                                        OFFSET  -2.788160   0.000000   0.000000
                                        CHANNELS 3 Zrotation Xrotation Yrotation
                                        End Site
                                        {
                                            OFFSET  -2.727660   0.000000   0.000000
                                        }
                                    }
                                }
                            }
                            JOINT RightFinger3
                            {
                                OFFSET  -7.899780   0.000000  -1.078090
                                CHANNELS 3 Zrotation Xrotation Yrotation
                                JOINT RightFinger31
                                {
                                    OFFSET  -4.646930   0.000000   0.000000
                                    CHANNELS 3 Zrotation Xrotation Yrotation
                                    JOINT RightFinger32
                                    {
                                        OFFSET  -2.323470   0.000000   0.000000
                                        CHANNELS 3 Zrotation Xrotation Yrotation
                                        End Site
                                        {
                                            OFFSET  -2.273050   0.000000   0.000000
                                        }
                                    }
                                }
                            }
                            JOINT RightFinger4
                            {
                                OFFSET  -7.435090   0.000000  -3.252850
                                CHANNELS 3 Zrotation Xrotation Yrotation
                                JOINT RightFinger41
                                {
                                    OFFSET  -3.717550   0.000000   0.000000
                                    CHANNELS 3 Zrotation Xrotation Yrotation
                                    JOINT RightFinger42
                                    {
                                        OFFSET  -1.858770   0.000000   0.000000
                                        CHANNELS 3 Zrotation Xrotation Yrotation
                                        End Site
                                        {
                                            OFFSET  -1.818440   0.000000   0.000000
                                        }
                                    }
                                }
                            }
                        }
                    }
                }
            }
        }
    }
    JOINT LeftHip
    {
        OFFSET   9.783040   0.000000   0.000000
        CHANNELS 3 Zrotation Xrotation Yrotation
        JOINT LeftKnee
        {
            OFFSET   0.000032 -41.789100  -0.002222
            CHANNELS 3 Zrotation Xrotation Yrotation
            JOINT LeftAnkle
            {
                OFFSET   0.000087 -41.133200  -0.000135
                CHANNELS 3 Zrotation Xrotation Yrotation
                JOINT LeftToe
                {
                    OFFSET   0.000000  -6.358960  14.674500
                    CHANNELS 3 Zrotation Xrotation Yrotation
                    End Site
                    {
                        OFFSET   0.000000   0.000000   3.913200
                    }
                }
            }
        }
    }
    JOINT RightHip
    {
        OFFSET  -9.783040   0.000000   0.000000
        CHANNELS 3 Zrotation Xrotation Yrotation
        JOINT RightKnee
        {
            OFFSET   0.000047 -41.789100  -0.000896
            CHANNELS 3 Zrotation Xrotation Yrotation
            JOINT RightAnkle
            {
                OFFSET  -0.000117 -41.133300  -0.000248
                CHANNELS 3 Zrotation Xrotation Yrotation
                JOINT RightToe
                {
                    OFFSET   0.000000  -6.358970  14.674500
                    CHANNELS 3 Zrotation Xrotation Yrotation
                    End Site
                    {
                        OFFSET   0.000000   0.000000   3.913200
                    }
                }
            }
        }
    }
}
MOTION
Frames: 6
Frame Time:   0.016667
 -4.530510  89.318600   1.513640  -1.174920 -10.366600  -1.687280   2.603110   8.197170  -1.462890   5.504500  16.315100  -3.356800   0.289629  -2.295040   0.010529   0.478083  -4.653450   9.566920  -5.412280   1.089920  10.923500 -71.848000 -31.387500 -19.337900   1.306630 -13.319400 -49.642700 -13.492600 -71.967400 -10.300400  49.632100  40.465400 -64.968400 -25.786100  -0.000785  -0.000428  -7.893060   0.004970   0.000000 -27.530100  -3.264790   6.234350 -22.670000  -0.005991   0.003747 -15.869000  -0.005912  -0.006902 -28.485600  -3.909360   7.161310 -39.729300  -0.005815  -0.004734 -26.459700  -0.005053  -0.003927 -27.719800  -4.557980   8.600010 -32.416900  -0.000330  -0.012228 -21.589600   0.002979  -0.006723 -30.788100  -7.150440  11.799400 -47.291900   0.001863   0.005809 -31.496400  -0.002911   0.002609   3.453080   2.671950   9.487310  54.527400 -44.049700  18.789800  -6.350750 -17.515900  32.612400 -69.640700 -83.154100 -52.378700 -49.779400  36.265300  73.594700  11.355600  -0.001756  -0.002434   0.675803  -0.004021  -0.000059  22.492700  -0.172722  -0.417034  18.403600   0.004461   0.000572  12.882500   0.002377   0.004197  22.816600  -0.175079  -0.416049  22.817100   0.004712   0.002473  15.196200   0.006566  -0.002517  25.144900  -0.813137  -1.731820  25.157100   0.005035   0.002252  16.754700   0.007634  -0.001055  29.278300  -1.963180  -3.496410  44.007300   0.004816  -0.002574  29.308900   0.005851  -0.003002   5.282720  12.670500  -0.258944   0.673697   2.459790  12.341000  -5.526990  -4.393580  -1.077720  -0.000000   0.000000   0.000000   0.133617  13.866900  -5.215510   1.541750   0.793138 -10.829900   0.038627  -3.743160   3.600720   0.000000   0.000000   0.000000
 -4.573830  89.313000   1.568330  -1.167030 -10.335000  -1.688310   2.610870   8.164140  -1.469830   5.519570  16.248500  -3.370040   0.259377  -2.369030   0.009720   0.428329  -4.803620   9.700230  -5.371140   1.063560  10.881100 -71.526600 -31.649900 -19.398200   1.383000 -13.388100 -49.438500 -12.925100 -71.829100  -9.802870  49.764700  40.679600 -65.090300 -25.898900  -0.000771  -0.000410  -7.949400   0.004967  -0.000000 -27.638600  -3.330830   6.325660 -22.764300  -0.005986   0.003740 -15.935100  -0.005921  -0.006890 -28.493000  -3.902320   7.146410 -39.887300  -0.005816  -0.001933 -26.564900  -0.005063  -0.001776 -27.730500  -4.587110   8.649370 -32.520300  -0.000328  -0.009477 -21.658500   0.002801  -0.005578 -30.849600  -7.197230  11.840800 -47.396100   0.001862   0.005807 -31.565700  -0.002906   0.002602   3.402250   2.675980   9.498200  54.365500 -44.368100  18.875100  -6.463980 -17.547500  32.391400 -68.677500 -83.161500 -51.508100 -49.765000  36.287400  73.642100  11.358300  -0.001878  -0.002435   0.678210  -0.004048  -0.000059  22.528700  -0.148488  -0.357886  18.432900   0.004433   0.000609  12.903000   0.002377   0.004204  22.863800  -0.150552  -0.357020  22.864200   0.004693   0.002487  15.227600   0.006569  -0.002516  25.163800  -0.775477  -1.650000  25.175600   0.004990   0.002260  16.767000   0.007589  -0.001092  29.296100  -1.949800  -3.470270  44.033400   0.004807  -0.002572  29.326300   0.005846  -0.003003   5.296850  12.651800  -0.259130   0.682155   2.505870  12.356300  -5.562500  -4.434570  -1.091660  -0.000000   0.000000  -0.000000   0.148822  13.803400  -5.227750   1.555250   0.854990 -10.805300   0.007907  -3.779740   3.582890  -0.000000   0.000000   0.000000
 -4.616630  89.307400   1.622500  -1.163720 -10.301000  -1.696540   2.620260   8.130140  -1.472100   5.537350  16.180100  -3.373810   0.228869  -2.446460   0.008909   0.378111  -4.960760   9.820720  -5.333740   1.038170  10.833400 -71.206500 -31.898500 -19.453000   1.456260 -13.442700 -49.281500 -12.380600 -71.645000  -9.316450  49.871600  40.847600 -65.188200 -25.995500  -0.000757  -0.000287  -7.997700   0.004963  -0.000000 -27.738700  -3.377430   6.391530 -22.849600  -0.005981   0.003734 -15.994800  -0.005930  -0.006879 -28.498000  -3.897190   7.135650 -40.001800  -0.005818   0.001264 -26.641200  -0.005073   0.000523 -27.739600  -4.595760   8.663000 -32.590700  -0.000327  -0.005249 -21.705400   0.002604  -0.003223 -30.900300  -7.213620  11.849000 -47.475000   0.001861   0.005804 -31.618300  -0.002902   0.002595   3.353430   2.679960   9.517190  54.192500 -44.677700  18.939300  -6.592200 -17.571500  32.211200 -67.852900 -83.142200 -50.741400 -49.770000  36.321800  73.720400  11.358700  -0.002004  -0.002436   0.679356  -0.004070  -0.000058  22.538500  -0.131553  -0.316975  18.440900   0.004406   0.000646  12.908600   0.002378   0.004211  22.876500  -0.133399  -0.316202  22.876800   0.004671   0.002503  15.236000   0.006572  -0.002516  25.168000  -0.742497  -1.579810  25.178200   0.004945   0.002267  16.768700   0.007545  -0.001128  29.302800  -1.930170  -3.434380  44.041000   0.004798  -0.002571  29.331300   0.005841  -0.003003   5.313350  12.634400  -0.259182   0.689529   2.549210  12.375600  -5.596500  -4.477820  -1.096960  -0.000000   0.000000   0.000000   0.164842  13.739900  -5.237800   1.568640   0.916859 -10.778100  -0.021677  -3.812330   3.575340  -0.000000   0.000000  -0.000000
 -4.658840  89.301900   1.675690  -1.168430 -10.262500  -1.721880   2.631850   8.095430  -1.466630   5.558440  16.110700  -3.362150   0.200278  -2.527400   0.008110   0.330938  -5.124910   9.928360  -5.305150   1.009260  10.777500 -70.868900 -32.132800 -19.476000   1.518740 -13.488700 -49.176900 -11.820300 -71.419100  -8.784460  49.924400  40.917500 -65.259800 -26.030600  -0.000764   0.000757  -8.016450   0.004974  -0.000000 -27.815600  -3.379310   6.381660 -22.911900  -0.005987   0.003740 -16.038400  -0.005922  -0.006887 -28.501200  -3.893620   7.128180 -40.081400  -0.005817   0.005851 -26.694200  -0.005066   0.003027 -27.747700  -4.585820   8.642780 -32.629100  -0.000325   0.000918 -21.731000   0.002390   0.000472 -30.934700  -7.207950  11.830000 -47.523300   0.001860   0.005805 -31.650500  -0.002903   0.002598   3.311130   2.672100   9.538670  53.960900 -44.929100  18.946100  -6.717390 -17.613100  32.064600 -67.259000 -83.069700 -50.146500 -49.735900  36.349600  73.795700  11.343700  -0.002124  -0.002432   0.671888  -0.004101  -0.000038  22.542700  -0.123585  -0.297621  18.444300   0.004380   0.000687  12.911000   0.002377   0.004209  22.874000  -0.125294  -0.296908  22.874300   0.004653   0.002518  15.234300   0.006569  -0.002519  25.168600  -0.721431  -1.534990  25.177900   0.004901   0.002270  16.768500   0.007507  -0.001162  29.308800  -1.918600  -3.412870  44.049500   0.004789  -0.002579  29.336100   0.005850  -0.003003   5.333390  12.616900  -0.258502   0.697424   2.589480  12.396500  -5.628480  -4.525030  -1.093620   0.000000   0.000000   0.000000   0.183750  13.748700  -5.244490   1.586120   0.894733 -10.748200  -0.050142  -3.837140   3.578410   0.000000   0.000000   0.000000
 -4.700040  89.296500   1.728390  -1.177160 -10.221900  -1.760420   2.643980   8.060480  -1.452560   5.579260  16.041100  -3.333260   0.172424  -2.608150   0.007308   0.284948  -5.288620  10.029400  -5.281120   0.982115  10.711300 -70.527500 -32.354300 -19.496600   1.578670 -13.537100 -49.091200 -11.317800 -71.196000  -8.306280  49.933400  40.937800 -65.282800 -26.038800  -0.000771   0.001699  -8.019410   0.004985  -0.000000 -27.874100  -3.379710   6.360070 -22.959900  -0.005993   0.003748 -16.071900  -0.005913  -0.006896 -28.503600  -3.890870   7.122490 -40.142300  -0.005816   0.008753 -26.734800  -0.005059   0.004480 -27.754400  -4.570710   8.611830 -32.654800  -0.000324   0.004939 -21.748100   0.002170   0.002956 -30.962400  -7.202480  11.803200 -47.562000   0.001859   0.005808 -31.676300  -0.002904   0.002600   3.271190   2.655570   9.551990  53.703300 -45.152200  18.929500  -6.838500 -17.667200  31.931800 -66.775600 -82.997100 -49.654700 -49.712400  36.359300  73.843700  11.328800  -0.002241  -0.002428   0.664420  -0.004136   0.000000  22.543300  -0.121962  -0.293686  18.444800   0.004353   0.000729  12.911400   0.002376   0.004206  22.868400  -0.123621  -0.292996  22.868800   0.004637   0.002534  15.230600   0.006566  -0.002521  25.167400  -0.712897  -1.517030  25.176600   0.004858   0.002274  16.767600   0.007469  -0.001195  29.311900  -1.913260  -3.403030  44.053200   0.004782  -0.002587  29.338400   0.005858  -0.003004   5.354810  12.600300  -0.257823   0.705855   2.629000  12.420600  -5.659770  -4.575150  -1.084340  -0.000000   0.000000  -0.000000   0.202717  13.800600  -5.250320   1.613450   0.822121 -10.713100  -0.076107  -3.860090   3.586450   0.000000   0.000000   0.000000
 -4.739760  89.290800   1.781030  -1.188590 -10.180900  -1.806590   2.655420   8.026040  -1.430090   5.597580  15.973100  -3.287150   0.144239  -2.684790   0.006517   0.238513  -5.443960  10.127800  -5.260380   0.963223  10.630400 -70.192800 -32.559800 -19.546700   1.646000 -13.603900 -48.990500 -10.929400 -71.023500  -7.964600  49.912300  40.917500 -65.236200 -26.044200  -0.000769   0.001702  -8.018650   0.004971   0.000000 -27.921300  -3.368930   6.323110 -22.997100  -0.005990   0.003751 -16.097900  -0.005920  -0.006888 -28.506400  -3.887950   7.116540 -40.205900  -0.005817   0.001376 -26.777100  -0.005060   0.000261 -27.761200  -4.560020   8.589110 -32.693400  -0.000325  -0.006664 -21.773800   0.001950  -0.004117 -31.000200  -7.204910  11.791300 -47.618000   0.001854   0.005813 -31.713600  -0.002904   0.002598   3.229260   2.632960   9.541150  53.433400 -45.350000  18.907100  -6.957240 -17.730900  31.785400 -66.513000 -82.952800 -49.378200 -49.660800  36.310300  73.787100  11.332000  -0.002351  -0.002434   0.665982  -0.004176   0.000042  22.539000  -0.134521  -0.324146  18.441400   0.004321   0.000771  12.909000   0.002376   0.004205  22.863600  -0.136366  -0.323373  22.864100   0.004624   0.002550  15.227500   0.006565  -0.002519  25.165800  -0.717853  -1.527880  25.175300   0.004816   0.002289  16.766800   0.007428  -0.001231  29.312200  -1.927490  -3.428450  44.054400   0.004780  -0.002585  29.339900   0.005855  -0.003004   5.376010  12.584500  -0.258744   0.715705   2.670690  12.448600  -5.691930  -4.628240  -1.068740   0.000000   0.000000   0.000000   0.222619  13.963900  -5.258200   1.648390   0.642450 -10.668100  -0.097361  -3.887210   3.599770  -0.000000   0.000000   0.000000
